<svg width="119" height="25" viewBox="0 0 119 25" fill="none" xmlns="http://www.w3.org/2000/svg">
<rect width="24" height="24" rx="12" fill="#6D4AD3"/>
<path d="M11.3333 18H7.33333C6.6 18 6 17.4 6 16.6667V7.33333C6 6.6 6.6 6 7.33333 6H11.3333V18ZM12.6667 18H16.6667C17.4 18 18 17.4 18 16.6667V12H12.6667V18ZM18 10.6667V7.33333C18 6.6 17.4 6 16.6667 6H12.6667V10.6667H18Z" fill="#E3F2FD"/>
<path d="M42.4 20C42.1067 20 41.8667 19.9067 41.68 19.72C41.4933 19.52 41.4 19.2733 41.4 18.98V10.5C41.4 10.2067 41.4933 9.96667 41.68 9.78C41.8667 9.58 42.1067 9.48 42.4 9.48C42.68 9.48 42.9133 9.58 43.1 9.78C43.3 9.96667 43.4 10.2067 43.4 10.5V12.74L43.2 11.88C43.3067 11.5067 43.4667 11.16 43.68 10.84C43.9067 10.52 44.1733 10.24 44.48 10C44.7867 9.76 45.1267 9.57333 45.5 9.44C45.8867 9.30667 46.2867 9.24 46.7 9.24C47.0467 9.24 47.3467 9.33333 47.6 9.52C47.8533 9.70667 47.98 9.94 47.98 10.22C47.98 10.58 47.8867 10.8467 47.7 11.02C47.5133 11.18 47.3067 11.26 47.08 11.26C46.88 11.26 46.6867 11.22 46.5 11.14C46.3133 11.0467 46.0933 11 45.84 11C45.56 11 45.2733 11.0733 44.98 11.22C44.6867 11.3667 44.42 11.5867 44.18 11.88C43.94 12.16 43.7467 12.4933 43.6 12.88C43.4667 13.2667 43.4 13.7 43.4 14.18V18.98C43.4 19.2733 43.3 19.52 43.1 19.72C42.9133 19.9067 42.68 20 42.4 20ZM59.3902 14.74C59.3902 15.8067 59.1568 16.7533 58.6902 17.58C58.2235 18.3933 57.5902 19.0333 56.7902 19.5C55.9902 19.9667 55.0902 20.2 54.0902 20.2C53.0902 20.2 52.1902 19.9667 51.3902 19.5C50.5902 19.0333 49.9502 18.3933 49.4702 17.58C49.0035 16.7533 48.7702 15.8067 48.7702 14.74C48.7702 13.66 49.0035 12.7133 49.4702 11.9C49.9502 11.0733 50.5902 10.4267 51.3902 9.96C52.1902 9.48 53.0902 9.24 54.0902 9.24C55.0902 9.24 55.9902 9.48 56.7902 9.96C57.5902 10.4267 58.2235 11.0733 58.6902 11.9C59.1568 12.7133 59.3902 13.66 59.3902 14.74ZM57.3902 14.74C57.3902 14.0067 57.2435 13.3733 56.9502 12.84C56.6568 12.2933 56.2568 11.8667 55.7502 11.56C55.2568 11.24 54.7035 11.08 54.0902 11.08C53.4768 11.08 52.9168 11.24 52.4102 11.56C51.9035 11.8667 51.5035 12.2933 51.2102 12.84C50.9168 13.3733 50.7702 14.0067 50.7702 14.74C50.7702 15.4467 50.9168 16.0733 51.2102 16.62C51.5035 17.1667 51.9035 17.5933 52.4102 17.9C52.9168 18.2067 53.4768 18.36 54.0902 18.36C54.7035 18.36 55.2568 18.2067 55.7502 17.9C56.2568 17.5933 56.6568 17.1667 56.9502 16.62C57.2435 16.0733 57.3902 15.4467 57.3902 14.74ZM70.2739 9.32C70.5672 9.32 70.8072 9.42 70.9939 9.62C71.1806 9.80667 71.2739 10.0467 71.2739 10.34V18.98C71.2739 19.2733 71.1806 19.52 70.9939 19.72C70.8072 19.9067 70.5672 20 70.2739 20C69.9939 20 69.7539 19.9067 69.5539 19.72C69.3672 19.52 69.2739 19.2733 69.2739 18.98V17.54L69.6939 17.6C69.6939 17.84 69.5939 18.1067 69.3939 18.4C69.2072 18.6933 68.9472 18.98 68.6139 19.26C68.2806 19.5267 67.8872 19.7533 67.4339 19.94C66.9806 20.1133 66.4939 20.2 65.9739 20.2C65.0539 20.2 64.2272 19.9667 63.4939 19.5C62.7606 19.02 62.1806 18.3667 61.7539 17.54C61.3272 16.7133 61.1139 15.7733 61.1139 14.72C61.1139 13.64 61.3272 12.6933 61.7539 11.88C62.1806 11.0533 62.7539 10.4067 63.4739 9.94C64.2072 9.47333 65.0206 9.24 65.9139 9.24C66.4872 9.24 67.0139 9.33333 67.4939 9.52C67.9872 9.70667 68.4139 9.94667 68.7739 10.24C69.1339 10.5333 69.4072 10.8467 69.5939 11.18C69.7939 11.5 69.8939 11.8067 69.8939 12.1L69.2739 12.16V10.34C69.2739 10.06 69.3672 9.82 69.5539 9.62C69.7539 9.42 69.9939 9.32 70.2739 9.32ZM66.1939 18.36C66.8206 18.36 67.3739 18.2 67.8539 17.88C68.3339 17.56 68.7072 17.1267 68.9739 16.58C69.2406 16.02 69.3739 15.4 69.3739 14.72C69.3739 14.0267 69.2406 13.4067 68.9739 12.86C68.7072 12.3133 68.3339 11.88 67.8539 11.56C67.3739 11.24 66.8206 11.08 66.1939 11.08C65.5806 11.08 65.0339 11.24 64.5539 11.56C64.0872 11.88 63.7139 12.3133 63.4339 12.86C63.1672 13.4067 63.0339 14.0267 63.0339 14.72C63.0339 15.4 63.1672 16.02 63.4339 16.58C63.7139 17.1267 64.0872 17.56 64.5539 17.88C65.0339 18.2 65.5806 18.36 66.1939 18.36ZM82.6958 5.2C82.9891 5.2 83.2291 5.29333 83.4158 5.48C83.6024 5.66667 83.6958 5.91333 83.6958 6.22V18.98C83.6958 19.2733 83.6024 19.52 83.4158 19.72C83.2291 19.9067 82.9891 20 82.6958 20C82.4158 20 82.1758 19.9067 81.9758 19.72C81.7891 19.52 81.6958 19.2733 81.6958 18.98V17.54L82.1158 17.56C82.1158 17.8 82.0158 18.0733 81.8158 18.38C81.6291 18.6733 81.3691 18.96 81.0358 19.24C80.7024 19.52 80.3091 19.7533 79.8558 19.94C79.4024 20.1133 78.9158 20.2 78.3958 20.2C77.4758 20.2 76.6491 19.9667 75.9158 19.5C75.1824 19.02 74.6024 18.3733 74.1758 17.56C73.7491 16.7333 73.5358 15.7867 73.5358 14.72C73.5358 13.6533 73.7491 12.7133 74.1758 11.9C74.6024 11.0733 75.1758 10.4267 75.8958 9.96C76.6291 9.48 77.4424 9.24 78.3358 9.24C78.8958 9.24 79.4158 9.33333 79.8958 9.52C80.3891 9.70667 80.8158 9.94667 81.1758 10.24C81.5358 10.5333 81.8158 10.8467 82.0158 11.18C82.2158 11.5 82.3158 11.8067 82.3158 12.1L81.6958 12.16V6.22C81.6958 5.92667 81.7891 5.68667 81.9758 5.5C82.1758 5.3 82.4158 5.2 82.6958 5.2ZM78.6158 18.36C79.2558 18.36 79.8091 18.2 80.2758 17.88C80.7558 17.56 81.1291 17.1267 81.3958 16.58C81.6624 16.0333 81.7958 15.4133 81.7958 14.72C81.7958 14.0267 81.6624 13.4067 81.3958 12.86C81.1291 12.3133 80.7558 11.88 80.2758 11.56C79.7958 11.24 79.2424 11.08 78.6158 11.08C78.0024 11.08 77.4558 11.24 76.9758 11.56C76.5091 11.88 76.1358 12.3133 75.8558 12.86C75.5891 13.4067 75.4558 14.0267 75.4558 14.72C75.4558 15.4133 75.5891 16.0333 75.8558 16.58C76.1358 17.1267 76.5091 17.56 76.9758 17.88C77.4558 18.2 78.0024 18.36 78.6158 18.36ZM86.3577 9.6H91.0577C91.3243 9.6 91.5443 9.69333 91.7177 9.88C91.9043 10.0533 91.9977 10.2733 91.9977 10.54C91.9977 10.7933 91.9043 11.0067 91.7177 11.18C91.5443 11.3533 91.3243 11.44 91.0577 11.44H86.3577C86.091 11.44 85.8643 11.3533 85.6777 11.18C85.5043 10.9933 85.4177 10.7733 85.4177 10.52C85.4177 10.2533 85.5043 10.0333 85.6777 9.86C85.8643 9.68667 86.091 9.6 86.3577 9.6ZM88.4577 7C88.751 7 88.991 7.1 89.1777 7.3C89.3643 7.48667 89.4577 7.72667 89.4577 8.02V17.3C89.4577 17.54 89.4977 17.7333 89.5777 17.88C89.6577 18.0267 89.7643 18.1267 89.8977 18.18C90.0443 18.2333 90.191 18.26 90.3377 18.26C90.4843 18.26 90.611 18.2333 90.7177 18.18C90.8377 18.1267 90.9777 18.1 91.1377 18.1C91.2977 18.1 91.4443 18.1733 91.5777 18.32C91.711 18.4667 91.7777 18.6667 91.7777 18.92C91.7777 19.24 91.6043 19.5 91.2577 19.7C90.911 19.9 90.5377 20 90.1377 20C89.911 20 89.6443 19.98 89.3377 19.94C89.031 19.9 88.731 19.8 88.4377 19.64C88.1577 19.48 87.9243 19.2267 87.7377 18.88C87.551 18.52 87.4577 18.02 87.4577 17.38V8.02C87.4577 7.72667 87.551 7.48667 87.7377 7.3C87.9377 7.1 88.1777 7 88.4577 7ZM95.2125 20C94.9192 20 94.6792 19.9067 94.4925 19.72C94.3058 19.52 94.2125 19.2733 94.2125 18.98V10.5C94.2125 10.2067 94.3058 9.96667 94.4925 9.78C94.6792 9.58 94.9192 9.48 95.2125 9.48C95.4925 9.48 95.7258 9.58 95.9125 9.78C96.1125 9.96667 96.2125 10.2067 96.2125 10.5V12.74L96.0125 11.88C96.1192 11.5067 96.2792 11.16 96.4925 10.84C96.7192 10.52 96.9858 10.24 97.2925 10C97.5992 9.76 97.9392 9.57333 98.3125 9.44C98.6992 9.30667 99.0992 9.24 99.5125 9.24C99.8592 9.24 100.159 9.33333 100.413 9.52C100.666 9.70667 100.793 9.94 100.793 10.22C100.793 10.58 100.699 10.8467 100.513 11.02C100.326 11.18 100.119 11.26 99.8925 11.26C99.6925 11.26 99.4992 11.22 99.3125 11.14C99.1258 11.0467 98.9058 11 98.6525 11C98.3725 11 98.0858 11.0733 97.7925 11.22C97.4992 11.3667 97.2325 11.5867 96.9925 11.88C96.7525 12.16 96.5592 12.4933 96.4125 12.88C96.2792 13.2667 96.2125 13.7 96.2125 14.18V18.98C96.2125 19.2733 96.1125 19.52 95.9125 19.72C95.7258 19.9067 95.4925 20 95.2125 20ZM104.452 18.98C104.452 19.2733 104.359 19.52 104.172 19.72C103.985 19.9067 103.745 20 103.452 20C103.172 20 102.932 19.9067 102.732 19.72C102.545 19.52 102.452 19.2733 102.452 18.98V10.42C102.452 10.1267 102.545 9.88667 102.732 9.7C102.932 9.5 103.172 9.4 103.452 9.4C103.745 9.4 103.985 9.5 104.172 9.7C104.359 9.88667 104.452 10.1267 104.452 10.42V18.98ZM103.432 8.08C103.045 8.08 102.765 8.01333 102.592 7.88C102.419 7.73333 102.332 7.49333 102.332 7.16V6.84C102.332 6.50667 102.425 6.27333 102.612 6.14C102.799 6.00667 103.079 5.94 103.452 5.94C103.852 5.94 104.139 6.01333 104.312 6.16C104.485 6.29333 104.572 6.52 104.572 6.84V7.16C104.572 7.50667 104.479 7.74667 104.292 7.88C104.119 8.01333 103.832 8.08 103.432 8.08ZM112.442 9.3C113.376 9.3 114.202 9.53333 114.922 10C115.656 10.4667 116.236 11.1067 116.662 11.92C117.089 12.72 117.302 13.6533 117.302 14.72C117.302 15.7867 117.089 16.7333 116.662 17.56C116.236 18.3733 115.662 19.0133 114.942 19.48C114.222 19.9467 113.409 20.18 112.502 20.18C111.996 20.18 111.516 20.1 111.062 19.94C110.609 19.78 110.209 19.5733 109.862 19.32C109.516 19.0533 109.229 18.7733 109.002 18.48C108.789 18.1867 108.656 17.9133 108.602 17.66L109.142 17.4V22.98C109.142 23.2733 109.042 23.5133 108.842 23.7C108.656 23.9 108.422 24 108.142 24C107.849 24 107.609 23.9 107.422 23.7C107.236 23.5133 107.142 23.2733 107.142 22.98V10.46C107.142 10.18 107.236 9.94 107.422 9.74C107.609 9.54 107.849 9.44 108.142 9.44C108.422 9.44 108.656 9.54 108.842 9.74C109.042 9.94 109.142 10.18 109.142 10.46V11.84L108.822 11.66C108.862 11.4067 108.989 11.1467 109.202 10.88C109.416 10.6 109.682 10.34 110.002 10.1C110.336 9.86 110.709 9.66667 111.122 9.52C111.549 9.37333 111.989 9.3 112.442 9.3ZM112.222 11.14C111.582 11.14 111.022 11.3 110.542 11.62C110.076 11.9267 109.709 12.3467 109.442 12.88C109.176 13.4133 109.042 14.0267 109.042 14.72C109.042 15.4 109.176 16.02 109.442 16.58C109.709 17.1267 110.076 17.56 110.542 17.88C111.022 18.1867 111.582 18.34 112.222 18.34C112.849 18.34 113.396 18.1867 113.862 17.88C114.329 17.56 114.696 17.1267 114.962 16.58C115.242 16.02 115.382 15.4 115.382 14.72C115.382 14.04 115.242 13.4333 114.962 12.9C114.696 12.3533 114.329 11.9267 113.862 11.62C113.396 11.3 112.849 11.14 112.222 11.14Z" fill="white"/>
</svg>
